<svg xmlns="http://www.w3.org/2000/svg" width="52" height="52" fill="none" class="icon"><circle cx="26" cy="26" r="25" stroke="#000" stroke-width="2"></circle><path fill="#000" d="M44 14.551a14.456 14.456 0 0 1-4.242 1.193 7.556 7.556 0 0 0 3.247-4.19 14.585 14.585 0 0 1-4.691 1.838A7.29 7.29 0 0 0 32.924 11c-4.08 0-7.386 3.392-7.386 7.573 0 .594.067 1.173.191 1.726-6.137-.316-11.579-3.331-15.223-7.915a7.703 7.703 0 0 0-.998 3.81c0 2.627 1.303 4.945 3.284 6.303a7.231 7.231 0 0 1-3.345-.948v.096c0 3.67 2.545 6.731 5.925 7.425a7.217 7.217 0 0 1-3.336.131c.94 3.009 3.668 5.2 6.9 5.26A14.581 14.581 0 0 1 8 37.599 20.533 20.533 0 0 0 19.322 41c13.585 0 21.012-11.54 21.012-21.55 0-.327-.007-.654-.021-.979A15.245 15.245 0 0 0 44 14.551Z"></path></svg>